<?xml version="1.0" encoding="utf-8"?>
<!-- Generator: Adobe Illustrator 27.1.1, SVG Export Plug-In . SVG Version: 6.00 Build 0)  -->
<svg version="1.1" id="Layer_1" xmlns="http://www.w3.org/2000/svg" xmlns:xlink="http://www.w3.org/1999/xlink" x="0px" y="0px"
	 viewBox="0 0 1860.6 1354.2" style="enable-background:new 0 0 1860.6 1354.2;" xml:space="preserve">
<style type="text/css">
	.st0{fill:#030F37;}
	.st1{fill:url(#SVGID_1_);}
	.st2{fill:url(#SVGID_00000123426588015748763960000001069471447246444435_);}
	.st3{fill:url(#SVGID_00000137129880893052112400000004958342970237725837_);}
	.st4{fill:url(#SVGID_00000023267067621203594350000008134500280609674151_);}
	.st5{fill:url(#SVGID_00000164504053359977741260000007435923621355630257_);}
	.st6{fill:url(#SVGID_00000039114787158168790580000000018198261227717291_);}
	.st7{fill:url(#SVGID_00000031171773387193633940000009349062185016956803_);}
	.st8{fill:url(#SVGID_00000018215683405470653410000000107265485024276116_);}
	.st9{fill:url(#SVGID_00000111894411733608663710000000885043635322644645_);}
	.st10{fill:url(#SVGID_00000083791577343623205500000000495707337424234896_);}
	.st11{fill:url(#SVGID_00000076587493035259476220000004610812328951627192_);}
	.st12{fill:url(#SVGID_00000076578950714335705440000011199123714324799901_);}
	.st13{fill:url(#SVGID_00000060015144882905548710000011745800748039220666_);}
	.st14{fill:url(#SVGID_00000000914438565203952730000016578886671055415430_);}
	.st15{fill:#42F5E3;}
	.st16{fill:#32E0CB;}
	.st17{fill:#00FFDA;}
	.st18{fill:#00CCAA;}
	.st19{fill:url(#SVGID_00000070083981932580736330000014683476815687559860_);}
	.st20{fill:url(#SVGID_00000090973331874238516780000017859483148746589064_);}
	.st21{fill:url(#SVGID_00000047773029786055585220000006951286670931660978_);}
	.st22{fill:url(#SVGID_00000113346625016961745520000003327689280905540235_);}
	.st23{fill:url(#SVGID_00000060709277117994458680000005444678822341917826_);}
	.st24{fill:url(#SVGID_00000039816732054694481880000015757519133101371306_);}
	.st25{fill:url(#SVGID_00000136412693437241599990000008975785359652849834_);}
	.st26{fill:url(#SVGID_00000093885578516518794850000015885937795950707620_);}
	.st27{fill:url(#SVGID_00000035531595558698926990000010832243362464801428_);}
	.st28{fill:url(#SVGID_00000173882708687665238390000013914250286705779879_);}
	.st29{fill:url(#SVGID_00000147928570020073950520000002833643098427678107_);}
	.st30{fill:url(#SVGID_00000096037468244992169810000007985721694160081585_);}
	.st31{fill:url(#SVGID_00000158716906043698650810000003387128512305945009_);}
	.st32{fill:url(#SVGID_00000082340801211782609550000012230778832701849485_);}
	.st33{fill:url(#SVGID_00000127014445611179919240000011009987166644367546_);}
	.st34{fill:url(#SVGID_00000086666673568964718040000016373269159460720795_);}
	.st35{fill:url(#SVGID_00000036932814497592587490000017326510714592333993_);}
	.st36{fill:url(#SVGID_00000167358861348077867790000000004693372594902418_);}
	.st37{fill:url(#SVGID_00000034798351942179423540000003068036569589083797_);}
	.st38{fill:url(#SVGID_00000168831339334333271480000009207849026105319561_);}
	.st39{fill:url(#SVGID_00000013894374183957551180000005465385015469906346_);}
	.st40{fill:url(#SVGID_00000074430016776344839390000011675938961322710974_);}
	.st41{fill:url(#SVGID_00000053527655334285421920000013315239614354118046_);}
	.st42{fill:url(#SVGID_00000089553665243200045700000010020399374226558651_);}
	.st43{fill:url(#SVGID_00000098919882682704981170000002517231019705657477_);}
	.st44{fill:url(#SVGID_00000063624901719515415780000000728151323965839519_);}
	.st45{fill:url(#SVGID_00000181788130590272027090000006530747154276452274_);}
	.st46{fill:url(#SVGID_00000116198258025889426390000008621741052709471155_);}
	.st47{fill:url(#SVGID_00000113327368558256271850000008056028199696434360_);}
	.st48{fill:url(#SVGID_00000080918003440906982030000004507214546837230767_);}
	.st49{fill:url(#SVGID_00000095316369444081773380000005317230208303532184_);}
	.st50{fill:url(#SVGID_00000020358181070041198710000002790372794251028923_);}
	.st51{fill:url(#SVGID_00000118397843977059312960000010811823512316574893_);}
	.st52{fill:url(#SVGID_00000059269444752193584490000004794681430776074666_);}
	.st53{fill:url(#SVGID_00000124847133787630590580000008318340628271598258_);}
	.st54{fill:url(#SVGID_00000102536575395959739350000004437877352374821555_);}
	.st55{fill:url(#SVGID_00000130635524956769181840000002614852581840348349_);}
	.st56{fill:url(#SVGID_00000111182100692486660770000013474171871091340735_);}
	.st57{fill:url(#SVGID_00000021107979244513286080000002157837097471260854_);}
	.st58{fill:url(#SVGID_00000122694791062326919940000016144356344497000620_);}
	.st59{fill:url(#SVGID_00000128475558707659783510000001320548210849523603_);}
	.st60{fill:url(#SVGID_00000118367028268691323900000008648810853380159390_);}
	.st61{fill:url(#SVGID_00000133487727084271022270000000976969769482383504_);}
	.st62{fill:url(#SVGID_00000061446752553750314350000017646935979740138902_);}
	.st63{fill:url(#SVGID_00000143587892852822707360000015062981563041160327_);}
	.st64{fill:url(#SVGID_00000165219902893798998800000000219814931314538656_);}
	.st65{fill:url(#SVGID_00000165233395052373766210000000295158381002922940_);}
	.st66{fill:url(#SVGID_00000034085032248473754500000005504147982695736463_);}
	.st67{fill:url(#SVGID_00000061463686171387427010000018324347165997736626_);}
	.st68{fill:url(#SVGID_00000173856065819900161540000001027936367398223541_);}
	.st69{fill:url(#SVGID_00000183949076702214026720000014018026871054211241_);}
	.st70{fill:url(#SVGID_00000130606521759850834070000011802415020105878680_);}
	.st71{fill:url(#SVGID_00000140000497006903977950000015120895249751270550_);}
	.st72{fill:url(#SVGID_00000178186758089097176520000000458561794427708095_);}
	.st73{fill:url(#SVGID_00000060003124251656992100000012123637171119312297_);}
	.st74{fill:url(#SVGID_00000130611519806198802980000012292346848411275648_);}
	.st75{fill:url(#SVGID_00000072964503527906849490000010673238365865026991_);}
	.st76{fill:url(#SVGID_00000000182176895162026770000012891078167184764055_);}
	.st77{fill:url(#SVGID_00000111171279870391988970000004446670738885460873_);}
	.st78{fill:url(#SVGID_00000161595047905366492230000002349272118416530105_);}
	.st79{fill:url(#SVGID_00000128443320032566307820000009002346751439400331_);}
	.st80{fill:url(#SVGID_00000146460789476414746300000015478801840466512777_);}
	.st81{fill:url(#SVGID_00000060720719364792793050000015682259742454143656_);}
	.st82{fill:url(#SVGID_00000168102784901391172260000013246766056580261801_);}
	.st83{fill:url(#SVGID_00000165917536432161666630000002446813255936650147_);}
	.st84{fill:url(#SVGID_00000048491038005025910730000018162919669050962617_);}
	.st85{fill:url(#SVGID_00000059300941566403771720000011252681870828902018_);}
	.st86{fill:url(#SVGID_00000090296424357390346680000008523753037685100434_);}
	.st87{fill:url(#SVGID_00000142876125688755396910000016573245954325073300_);}
	.st88{fill:url(#SVGID_00000115502557259720794630000004878652254235468432_);}
	.st89{fill:url(#SVGID_00000041987776809501991960000005814239353433005237_);}
	.st90{fill:url(#SVGID_00000040549372347303669580000017368272199721167747_);}
	.st91{fill:url(#SVGID_00000001629893996080560140000003958834901086025351_);}
	.st92{fill:url(#SVGID_00000168106166973986287940000006191484797847417769_);}
	.st93{fill:url(#SVGID_00000173157372443592698920000006017436346306512266_);}
	.st94{fill:url(#SVGID_00000124840791659206670930000010058779960819322518_);}
	.st95{fill:url(#SVGID_00000152974665769460597720000001005629998866272939_);}
	.st96{fill:url(#SVGID_00000101821901300380169900000009520115717366117281_);}
	.st97{fill:url(#SVGID_00000104697957013513287030000002005989169371897517_);}
	.st98{fill:url(#SVGID_00000058586327377446099400000015607621329109342142_);}
	.st99{fill:url(#SVGID_00000144337155118937324980000015182414105399447694_);}
	.st100{fill:url(#SVGID_00000139976299671453943940000002485840757513763999_);}
	.st101{fill:url(#SVGID_00000032634251837998427460000012675214892559663793_);}
	.st102{fill:url(#SVGID_00000141444224938791078460000000352901486578524336_);}
	.st103{fill:url(#SVGID_00000128480911139848256480000018383775994085122208_);}
	.st104{fill:url(#SVGID_00000063608016425714161410000001281734232501360521_);}
	.st105{fill:url(#SVGID_00000154404896804243114670000007553450122086082979_);}
	.st106{fill:url(#SVGID_00000143606648861321149650000012728504852619613861_);}
	.st107{fill:#FFFFFF;}
	.st108{fill:url(#SVGID_00000090989815787520825590000015280764251518883988_);}
	.st109{fill:url(#SVGID_00000161618652968540640730000014339981096020441489_);}
	.st110{fill:url(#SVGID_00000078745711513514453630000001685157959798818437_);}
	.st111{fill:url(#SVGID_00000115498512878471822500000013176078943049897101_);}
	.st112{fill:url(#SVGID_00000181768256026136546650000007665799154205140671_);}
	.st113{fill:url(#SVGID_00000151527273931285631880000006538483668428721794_);}
	.st114{fill:url(#SVGID_00000144321411405665821600000001150498302145412241_);}
	.st115{fill:url(#SVGID_00000141432127873288844060000016689386945434872490_);}
	.st116{fill:url(#SVGID_00000061443130027686176040000008695847296898666916_);}
	.st117{fill:url(#SVGID_00000072984457148095530570000014665219868270212228_);}
	.st118{fill:url(#SVGID_00000044178607547078118540000005322842765302628793_);}
	.st119{fill:url(#SVGID_00000144316664890642683180000009953994661091733432_);}
	.st120{opacity:0.71;clip-path:url(#SVGID_00000047763028357823694030000012865035206922199996_);fill:#2B2221;}
	.st121{clip-path:url(#SVGID_00000047763028357823694030000012865035206922199996_);}
	.st122{fill:#6DFCCB;}
	.st123{fill:#F8EDEC;}
	.st124{fill:#514544;}
	.st125{fill:#493B3A;}
	.st126{fill:#54F7E3;}
	.st127{fill:#35F9C0;}
	.st128{fill:#10F7DC;}
	.st129{clip-path:url(#SVGID_00000035502577214182281980000007961862688809579435_);fill:#35F9C0;}
	.st130{clip-path:url(#SVGID_00000035502577214182281980000007961862688809579435_);fill:#84F9E4;}
	.st131{opacity:0.2;fill:#83C1B4;}
	.st132{fill:#FEFFFB;}
</style>
<g>
	<defs>
		
			<rect id="SVGID_00000021120155790379766880000018200912929570169732_" x="166.7" y="43.3" transform="matrix(-1 -4.489932e-11 4.489932e-11 -1 1784.723 1335.8298)" width="1451.2" height="1249.2"/>
	</defs>
	<clipPath id="SVGID_00000145050254355859565870000011954384214471532477_">
		<use xlink:href="#SVGID_00000021120155790379766880000018200912929570169732_"  style="overflow:visible;"/>
	</clipPath>
	
		<ellipse style="opacity:0.71;clip-path:url(#SVGID_00000145050254355859565870000011954384214471532477_);fill:#2B2221;" cx="652.1" cy="1217.7" rx="600.6" ry="54.2"/>
	<g style="clip-path:url(#SVGID_00000145050254355859565870000011954384214471532477_);">
		<g>
			<path class="st122" d="M1147.9,1146c-0.8,1.6-1.8,3.2-1.9,5c-0.1,2,1.1,3.9,0.9,5.9c-0.2,2.3-1.3,3.9-0.7,6.4
				c0.5,1.8,1.7,3.2,2.1,5.1c0.5,2.4-0.5,3.6-1.1,5.9c-0.5,2,0.3,2.8,0.8,4.7c0.3,1,0.3,2.8-0.1,3.8c-0.3,0.9-1.4,1.6-1.7,2.6
				c-0.5,2.6,2.6,3.8,1.8,6.7c-0.6,2.1-1.9,3.1-2.1,5.3c-0.2,1.5-0.3,4.1-1.6,5.2c-2.4,2.1-5.4-1.5-6.4-3.5
				c-3.3-6.9-1.8-15.8-1.8-23.1c0-7.8,1.9-14.5,3.3-21.9c0.6-3.1,0.8-5.3,3.7-7.1C1144.3,1146.3,1146.4,1145.2,1147.9,1146z"/>
			<path class="st122" d="M1160.9,1064.6c0,1,0.5,1.9,0.5,2.8c0,1.8-0.2,1.4-0.8,2.9c-0.9,2.4-0.9,3.8-0.5,6.4
				c0.4,2.4-0.2,3.6-1.3,5.7c-1.1,2.2-0.9,3-0.3,5.4c0.7,2.6,0.8,3.4-0.1,5.5c-0.7,1.7-2.2,3-2.7,4.6c-0.5,1.5,0.4,2.7-0.6,4.1
				c-0.5,0.6-1.4,0.3-1.9,1.1c-0.5,0.7-0.4,2.1-0.2,2.9c0.6,2.3,2.4,3.7,1.5,6.3c-0.2,0.7-1,1-1.3,1.9c-0.5,1.8,0.9,2.3,1.3,3.8
				c0.6,2.5-0.7,2.4-1.9,4c-1.6,2.2-0.9,4-0.9,6.5c0,0.7,0.1,1.3-0.2,2c-0.6,1.5-0.7,0.7-1.5,1.5c-1.3,1.2-1.3,1.3-1.8,3.3
				c-0.5,1.8-0.7,3.9-2.5,4.7c-3.5,1.6-5.6-2.2-5.7-5.1c-0.4-12.6-1.5-26.1,0.7-38.6c1.4-8.2,4.9-16.7,8.8-23.9
				c1.5-2.7,3.4-6.8,6.5-7.7C1157,1064.2,1159.4,1064,1160.9,1064.6z"/>
			<path class="st123" d="M1143.2,1193.2c-0.2-1.4-1.2-2.4-1.3-3.8c-0.2-1.7,0.8-3.9,1.6-5.3c0.9-1.6,2.7-3,3.2-4.8
				c0.1-0.2,0-0.6,0.1-0.6c-0.2-0.2-0.5-0.4-0.7-0.6c-0.6-0.5-1.2-0.9-1.7-1.5c-1-1.3-0.8-2.8,0.3-3.9c0.1-0.1,0.5-0.5,0.7-0.6
				c-0.2-0.9-0.2-1.9-0.3-2.8c-0.4-3.8-1.9-7.7-1.7-11.5c0.1-2.1,0.8-4.1,1.7-6c0.7-1.6,3.1-4.5,2.7-6.3c-0.4-1.6-2.1-2.8-2.6-4.4
				c-0.5-1.7-0.1-3.3,0.8-4.8c1-1.7,3.3-3.1,4-4.9c0.6-1.4-0.8-3.4-0.5-5.1c0.2-1.2,0.7-2.4,1.1-3.5c0.3-0.8,1.2-2,1.2-2.8
				c-0.1-1.6-2.3-2.6-2.2-4.5c0.1-2.1,1.7-4.5,3.4-5.9c-0.5-1.2-1.6-2.4-2.1-3.5c-0.6-1.4-0.5-3,0-4.5c0.8-2.7,3.9-3.9,3.5-6.9
				c-0.2-1.7-0.5-3.5,0.4-5c0.4-0.6,0.9-1,1.4-1.5c0.1-0.1,0.1-0.1,0.1-0.1c-0.2-0.2-0.5-0.4-0.6-0.5c-1.2-1.2-0.8-2.3-0.9-3.8
				c-0.1-1.9-0.2-3.1,0.7-4.9c0.3-0.6,1.1-1,1.8-1c0.4,0,1.7-0.6,1.9-1.1c0.1-0.3-0.3-0.9-0.4-1.2c-0.6-1.3-1.2-2.5-1.2-4
				c0-1.8,1-3.4,2-4.9c0.8-1.2,1.4-2.1,1.3-3.2H157c-7.5,0-13.6,6.1-13.6,13.5V1190c0,7.5,6.1,13.5,13.6,13.5h985.8
				C1143.1,1200.1,1143.7,1196.6,1143.2,1193.2z"/>
			<path class="st124" d="M1143.2,1193.2c-0.2-1.4-1.2-2.4-1.3-3.8c-0.2-1.7,0.8-3.9,1.6-5.3c0.9-1.6,2.7-3,3.2-4.8
				c0.1-0.2,0-0.6,0.1-0.6c-0.2-0.2-0.5-0.4-0.7-0.6c-0.6-0.5-1.2-0.9-1.7-1.5c-1-1.3-0.8-2.8,0.3-3.9c0.1-0.1,0.5-0.5,0.7-0.6
				c-0.2-0.9-0.2-1.9-0.3-2.8c-0.4-3.8-1.9-7.7-1.7-11.5c0.1-2.1,0.8-4.1,1.7-6c0.7-1.6,3.1-4.5,2.7-6.3c-0.4-1.6-2.1-2.8-2.6-4.4
				c-0.5-1.7-0.1-3.3,0.8-4.8c1-1.7,3.3-3.1,4-4.9c0.6-1.4-0.8-3.4-0.5-5.1c0.2-1.2,0.7-2.4,1.1-3.5c0.3-0.8,1.2-2,1.2-2.8
				c-0.1-1.6-2.3-2.6-2.2-4.5c0.1-2.1,1.7-4.5,3.4-5.9c-0.5-1.2-1.6-2.4-2.1-3.5c-0.6-1.4-0.5-3,0-4.5c0.8-2.7,3.9-3.9,3.5-6.9
				c-0.2-1.7-0.5-3.5,0.4-5c0.4-0.6,0.9-1,1.4-1.5c0.1-0.1,0.1-0.1,0.1-0.1c-0.2-0.2-0.5-0.4-0.6-0.5c-1.2-1.2-0.8-2.3-0.9-3.8
				c-0.1-1.9-0.2-3.1,0.7-4.9c0.3-0.6,1.1-1,1.8-1c0.4,0,1.7-0.6,1.9-1.1c0.1-0.3-0.3-0.9-0.4-1.2c-0.6-1.3-1.2-2.5-1.2-4
				c0-1.8,1-3.4,2-4.9c0.8-1.2,1.4-2.1,1.3-3.2h-35.9c-1.5,4.7-6.3,7.5-9.1,13.9c-3.4,7.6,5.4,11,4.7,18.1c-0.8,8-10.6,9-9.3,18.2
				c0.9,6,6.7,9.5,1.7,15.3c-2.9,3.4-9.8,2.4-11,7.4c-1.3,5.5,8.1,11.2,10,16.1c2.5,6.4-1.3,6.5-2.5,12.2c-1.7,7.8,5.8,9.6,0.8,16.9
				c-1.4,2-5.2,2.9-6,5.3c-1.7,5,2.8,4.3,3.1,7.6c0.2,3-3.3,5.8-4.6,8.7h40C1143.1,1200.1,1143.7,1196.6,1143.2,1193.2z"/>
			<path class="st125" d="M1112.4,1167.9c1.2-1.8-0.7-4.7,0.3-6.5c2.1-3.9,4-2.4,5-6.8c0.3-1.5-0.7-3.7-0.3-5.4
				c0.3-1.3,2.4-1.5,2.8-3.1c1-3.3-2.1-5.1-2.7-8c-0.6-2.9,1.2-5.7,2.6-8.1c2.8-5,0.7-10.8,3-15.2c3.7-7,5.7-0.2,4.5,4.8
				c-1.2,4.8-4.3,7.8-2.5,13c4.4-0.4,5.7-9.5,9.2-12.8c2.9-2.9,4.8-3.2,5.6-7.4c0.7-3.5-1.8-6.8-1.2-10c0.6-3.6,3.4-6.2,4.4-9.6
				c1.1-3.9,0.6-5.2,2.4-8.9c0.8-1.6,2.7-2.2,3.1-4c0.6-2.4-1.4-4.4-1.3-6.6c0.2-3.9,2.9-6.4,4.8-9.4h-27.1
				c-1.5,4.7-6.3,7.5-9.1,13.9c-3.4,7.6,5.4,11,4.7,18.1c-0.8,8-10.6,9-9.3,18.2c0.9,6,6.7,9.5,1.7,15.3c-2.9,3.4-9.8,2.4-11,7.4
				c-1.3,5.5,8.1,11.2,10,16.1c2.5,6.4-1.3,6.5-2.5,12.2c-0.4,2-0.3,3.6,0.2,5C1110.9,1169.4,1111.8,1168.7,1112.4,1167.9z"/>
			<path class="st124" d="M1143.2,1193.2c-0.2-1.4-1.2-2.4-1.3-3.8c-0.2-1.7,0.8-3.9,1.6-5.3c0.9-1.6,2.7-3,3.2-4.8
				c0.1-0.2,0-0.6,0.1-0.6c-0.2-0.2-0.5-0.4-0.7-0.6c-0.6-0.5-1.2-0.9-1.7-1.5c-1-1.3-0.8-2.8,0.3-3.9c0.1-0.1,0.5-0.5,0.7-0.6
				c-0.2-0.9-0.2-1.9-0.3-2.8c-0.4-3.8-1.9-7.7-1.7-11.5c0.1-2.1,0.8-4.1,1.7-6c0.7-1.6,3.1-4.5,2.7-6.3c-0.4-1.6-2.1-2.8-2.6-4.4
				c-0.5-1.7-0.1-3.3,0.8-4.8c1-1.7,3.3-3.1,4-4.9c0.6-1.4-0.8-3.4-0.5-5.1c0.2-1.2,0.7-2.4,1.1-3.5c0.3-0.8,1.2-2,1.2-2.8
				c-0.1-1.6-2.3-2.6-2.2-4.5c0.1-2.1,1.7-4.5,3.4-5.9c-0.5-1.2-1.6-2.4-2.1-3.5c-0.6-1.4-0.5-3,0-4.5c0.8-2.7,3.9-3.9,3.5-6.9
				c-0.2-1.7-0.5-3.5,0.4-5c0.4-0.6,0.9-1,1.4-1.5c0.1-0.1,0.1-0.1,0.1-0.1c-0.2-0.2-0.5-0.4-0.6-0.5c-1.2-1.2-0.8-2.3-0.9-3.8
				c-0.1-1.9-0.2-3.1,0.7-4.9c0.3-0.6,1.1-1,1.8-1c0.4,0,1.7-0.6,1.9-1.1c0.1-0.3-0.3-0.9-0.4-1.2c-0.6-1.3-1.2-2.5-1.2-4
				c0-1.8,1-3.4,2-4.9c0.8-1.2,1.4-2.1,1.3-3.2h-8.8c-1.8,3-4.6,5.4-4.8,9.4c-0.1,2.3,1.9,4.3,1.3,6.6c-0.4,1.8-2.3,2.3-3.1,4
				c-1.8,3.7-1.3,5-2.4,8.9c-1,3.5-3.8,6.1-4.4,9.6c-0.5,3.2,2,6.5,1.2,10c-0.9,4.2-2.7,4.5-5.6,7.4c-3.5,3.4-4.8,12.4-9.2,12.8
				c-1.8-5.1,1.3-8.1,2.5-13c1.3-5-0.8-11.8-4.5-4.8c-2.4,4.5-0.3,10.2-3,15.2c-1.4,2.4-3.2,5.2-2.6,8.1c0.6,2.9,3.7,4.7,2.7,8
				c-0.5,1.5-2.5,1.8-2.8,3.1c-0.4,1.8,0.7,3.9,0.3,5.4c-1,4.5-2.9,3-5,6.8c-0.9,1.8,1,4.7-0.3,6.5c-0.6,0.8-1.6,1.5-2.7,2.1
				c1.2,4.1,4.4,6.5,0.7,11.9c-1.4,2-5.2,2.9-6,5.3c-1.7,5,2.8,4.3,3.1,7.6c0.2,3-3.3,5.8-4.6,8.7h40
				C1143.1,1200.1,1143.7,1196.6,1143.2,1193.2z"/>
			<path class="st122" d="M1148.3,1103.1c0.9,3.2-0.1,4.2-1.2,6.9c-0.7,1.8,0.1,3.2-0.3,5.1c-0.5,2.7-3.3,3.3-3.4,6.3
				c-0.1,2.5,1.9,4.3,1.7,6.9c-0.2,3.6-3.5,4.8-4.6,7.7c-1,2.6,1.2,5.6,1.5,8.3c0.4,3.8-0.5,6.6-0.9,10.3c-0.5,4,1.5,6.4,1.8,10.2
				c0.3,3.8-0.5,5.4-2.1,8.7c-1.6,3.4-1.2,5.5-0.5,9c0.6,3.2-0.4,4.4-1.7,7.2c-1.1,2.2-0.3,5.8-1.4,7.2c-1.5,1.9-5.1,1.4-7.1,1.1
				c-1-0.2-1.7-0.9-2.8-0.7c-0.9,0.2-1.9,1.7-3.3,1.8c-3,0.2-3.2-1.1-2.8-3.7c0.7-4.6,5.1-5.5,6.8-9.3c2.3-5.3-3.9-9-4.2-13.7
				c-0.1-2.5,1.1-5.7,2-7.9c0.9-2.4,3.4-4.3,4.3-6.5c1.3-3.6-2.9-6.6,0.3-10.8c1.4-1.8,3.1-1.8,3.7-4.2c0.4-1.7,0-3.9,0.1-5.7
				c3.2,1.5,2.2,5.4,2,8.1c-0.3,4.4,2.5,6.1,2.1,0.7c-0.2-2-0.6-3.9-0.7-5.9c0-2.6-0.8-4.8-0.9-7.3c-0.3-3.9,3.4-6.4,3.8-10.2
				c0.2-1.7-0.7-3.3-0.3-5c0.5-1.9,2.2-1.9,3-3.2c1.4-2.2-0.1-5.3,0.1-7.5c0.4-3.9,3.7-7.3,4-11.2c0.1-1.4-0.6-7.8,3.1-7
				c2.2,0.5-0.1,3.4-0.3,4.8c-0.2,1.4,0.5,2.9,0.4,4C1150.2,1099.7,1148.3,1101.5,1148.3,1103.1z"/>
			<path class="st122" d="M1153,1084.2c0.1-0.7,0.4-1.3,0.3-2.1c-0.1-1-1.2-1.4-1.1-2.4c0.1-2.3,3.6-2.1,2.8-4.7
				c-0.3-1-0.9-1.3-0.8-2.5c0.1-1.1,0.7-1.5,1.1-2.4c0.4-0.9,1-3.4,0.2-4.2c-1.9-2-1.6,1.9-1.8,2.4c-0.4,0.8-1.4,0.8-1.8,1.5
				c-0.6,1,0,1.4,0.1,2.4c0,0.7-0.2,0.9-0.4,1.5c-0.3,0.9-0.1,1.9-0.3,2.7c-0.2,0.9-0.7,1.6-0.8,2.6c-0.1,1,0,1.9,0,2.9
				c0,0.3,0.4,0.5,0.3,1c0,0.3-0.5,0.8-0.6,1.1c-0.2,0.5-0.7,1.4-0.4,1.9C1151.1,1087.8,1152.8,1084.6,1153,1084.2z"/>
			<path class="st122" d="M1139.7,1070.5c-1.8-0.9-2.6,0.8-2.9,2.1c-0.2,1,0.4,1-0.3,1.9c-0.5,0.7-1.7,0.7-2.3,1.5
				c-1.6,2-1.2,5.2,0.2,7.1c1.4,1.9,1.2,2.2,0.3,4.7c-0.6,1.8-1.4,5.1,1.5,5.4c2.7,0.3,2.1-3.3,1.6-5c-0.3-1.1-1.7-2.5-1.5-3.7
				c0.2-1.2,1.8-1.8,2.4-2.7c1.1-1.7,0.7-3.3-0.4-4.9c1.2-1.1,3.2-1.6,3.2-3.7C1141.7,1072.3,1140.5,1070.2,1139.7,1070.5z"/>
			<path class="st122" d="M1129.4,1090.8c0.5,0.5,0.9,1.2,1,2.1c0.3,2.8-2.4,5.3-3.4,7.8c-0.4,1-0.2,2.8-0.8,3.7
				c-0.7,1-2.3,0.9-3.1,1.8c-1.1,1.2-0.3,2.2-0.3,3.6c0,1.9-1.1,2.3-2.3,3.4c-2.1,2-0.4,6.8-2.4,8.2c-1.3,0.9-2.1-0.5-2.7-1.8
				c-1.1-2.3-0.3-5.9,0.9-8.1c0.8-1.5,3.3-2.6,3.4-4c0.1-0.8-0.7-1.9-0.7-2.9c0-1,0.2-1.8,0.8-2.5c1.9-2.5,4.3-3.1,4.1-6.7
				c-0.2-2.9-2.6-5.2-2.4-8.2c0.1-1.3,0.6-2.5,2.2-2.3c1.4,0.2,1.4,1.3,2,2.3C1126.4,1089,1128.2,1089.6,1129.4,1090.8z"/>
			<path class="st126" d="M1137.8,1187.9c-0.2-2,0.6-4.1,0.6-6.2c0-1,0.2-2.1-0.2-3c-0.3-0.6-1.1-0.8-1.3-1.5
				c-0.5-1.5,1-4.2,1.6-5.6c0.7-1.9,1.7-3.3,1.6-5.5c-0.1-1.9-1-2.5-1.8-4c-0.9-1.6-0.7-2.8-0.6-4.6c0.1-3.1-2-4.5-2.8-0.7
				c-0.4,1.7,0.6,3.4,0.1,5c-0.5,1.6-2.4,2.6-3.1,4.1c-2,4.3,3.1,6.5,1.6,10.4c-0.6,1.5-2.1,2.4-1.5,4.3c0.4,1.2,1.9,1.6,2.2,2.9
				c0.4,1.9-2,4-2.8,5.7c-1,2-0.7,4.9,2.3,5C1136.9,1194.4,1136.1,1189.3,1137.8,1187.9z"/>
			<rect x="416.8" y="1063.7" class="st127" width="44.9" height="139.8"/>
			<rect x="416.8" y="1063.7" class="st128" width="44.9" height="139.8"/>
			<g>
				<defs>
					<path id="SVGID_00000166665009324810824510000007196727096862509993_" d="M157,1063.7c-7.5,0-13.6,6.1-13.6,13.5V1190
						c0,7.5,6.1,13.5,13.6,13.5h259.7v-139.8H157z"/>
				</defs>
				<clipPath id="SVGID_00000039823558675755193520000008064739390203375279_">
					<use xlink:href="#SVGID_00000166665009324810824510000007196727096862509993_"  style="overflow:visible;"/>
				</clipPath>
				<path style="clip-path:url(#SVGID_00000039823558675755193520000008064739390203375279_);fill:#35F9C0;" d="M157,1063.7
					c-7.5,0-13.6,6.1-13.6,13.5V1190c0,7.5,6.1,13.5,13.6,13.5h259.7v-139.8H157z"/>
				<path style="clip-path:url(#SVGID_00000039823558675755193520000008064739390203375279_);fill:#84F9E4;" d="M394.2,1095.2
					c-5.7,0-10.3-4.6-10.3-10.3c0-5.7,4.6-10.2,10.3-10.2c5.7,0,10.3,4.6,10.3,10.2C404.5,1090.6,399.8,1095.2,394.2,1095.2z"/>
				<path style="clip-path:url(#SVGID_00000039823558675755193520000008064739390203375279_);fill:#84F9E4;" d="M322.4,1152.1
					c-10.6,0-19.1-8.5-19.1-19c0-10.5,8.6-19,19.1-19c10.6,0,19.1,8.5,19.1,19C341.5,1143.6,333,1152.1,322.4,1152.1z"/>
				<path style="clip-path:url(#SVGID_00000039823558675755193520000008064739390203375279_);fill:#84F9E4;" d="M377.3,1146.4
					c-3.7,0-6.6-3-6.6-6.6c0-3.6,3-6.6,6.6-6.6c3.7,0,6.6,3,6.6,6.6C383.9,1143.5,380.9,1146.4,377.3,1146.4z"/>
				<path style="clip-path:url(#SVGID_00000039823558675755193520000008064739390203375279_);fill:#84F9E4;" d="M340.5,1191.8
					c-6.1,0-11-4.9-11-11c0-6.1,4.9-11,11-11s11,4.9,11,11C351.5,1186.9,346.6,1191.8,340.5,1191.8z"/>
				<path style="clip-path:url(#SVGID_00000039823558675755193520000008064739390203375279_);fill:#84F9E4;" d="M386.1,1186
					c-3.7,0-6.6-2.9-6.6-6.6c0-3.6,3-6.6,6.6-6.6c3.7,0,6.6,3,6.6,6.6C392.7,1183,389.7,1186,386.1,1186z"/>
				
					<ellipse style="clip-path:url(#SVGID_00000039823558675755193520000008064739390203375279_);fill:#84F9E4;" cx="344.2" cy="1092.2" rx="4.4" ry="4.4"/>
				<path style="clip-path:url(#SVGID_00000039823558675755193520000008064739390203375279_);fill:#84F9E4;" d="M272.1,1093.7
					c-2.4,0-4.4-2-4.4-4.4c0-2.4,2-4.4,4.4-4.4c2.4,0,4.4,2,4.4,4.4C276.5,1091.7,274.6,1093.7,272.1,1093.7z"/>
				<path style="clip-path:url(#SVGID_00000039823558675755193520000008064739390203375279_);fill:#84F9E4;" d="M260.4,1181.6
					c-4.9,0-8.8-3.9-8.8-8.8s3.9-8.8,8.8-8.8c4.9,0,8.8,3.9,8.8,8.8S265.2,1181.6,260.4,1181.6z"/>
				<path style="clip-path:url(#SVGID_00000039823558675755193520000008064739390203375279_);fill:#84F9E4;" d="M300.1,1203.5
					c-7.3,0-13.2-5.9-13.2-13.2s5.9-13.2,13.2-13.2c7.3,0,13.2,5.9,13.2,13.2S307.4,1203.5,300.1,1203.5z"/>
				<path style="clip-path:url(#SVGID_00000039823558675755193520000008064739390203375279_);fill:#84F9E4;" d="M303.7,1082
					c-7.7,0-14-6.2-14-13.9s6.3-13.9,14-13.9c7.7,0,14,6.2,14,13.9S311.5,1082,303.7,1082z"/>
				
					<ellipse style="clip-path:url(#SVGID_00000039823558675755193520000008064739390203375279_);fill:#84F9E4;" cx="227.3" cy="1079.8" rx="8.1" ry="8.1"/>
				<path style="clip-path:url(#SVGID_00000039823558675755193520000008064739390203375279_);fill:#84F9E4;" d="M233.9,1152.3
					c-8.9,0-16.2-7.2-16.2-16.1c0-8.9,7.2-16.1,16.2-16.1c8.9,0,16.2,7.2,16.2,16.1C250.1,1145.1,242.8,1152.3,233.9,1152.3z"/>
				
					<ellipse style="clip-path:url(#SVGID_00000039823558675755193520000008064739390203375279_);fill:#84F9E4;" cx="195.7" cy="1188.9" rx="11.8" ry="11.7"/>
				
					<ellipse style="clip-path:url(#SVGID_00000039823558675755193520000008064739390203375279_);fill:#84F9E4;" cx="231" cy="1200.6" rx="4.4" ry="4.4"/>
				<path style="clip-path:url(#SVGID_00000039823558675755193520000008064739390203375279_);fill:#84F9E4;" d="M364.8,1212.3
					c-3.2,0-5.9-2.6-5.9-5.9c0-3.2,2.6-5.9,5.9-5.9c3.2,0,5.9,2.6,5.9,5.9C370.6,1209.7,368,1212.3,364.8,1212.3z"/>
				<path style="clip-path:url(#SVGID_00000039823558675755193520000008064739390203375279_);fill:#84F9E4;" d="M198.6,1114.2
					c-4.1,0-7.4-3.3-7.4-7.3c0-4,3.3-7.3,7.4-7.3c4.1,0,7.4,3.3,7.4,7.3C206,1110.9,202.7,1114.2,198.6,1114.2z"/>
				<path style="clip-path:url(#SVGID_00000039823558675755193520000008064739390203375279_);fill:#84F9E4;" d="M173.6,1084.9
					c-7.3,0-13.2-5.9-13.2-13.2s5.9-13.2,13.2-13.2c7.3,0,13.2,5.9,13.2,13.2S180.9,1084.9,173.6,1084.9z"/>
				
					<ellipse style="clip-path:url(#SVGID_00000039823558675755193520000008064739390203375279_);fill:#84F9E4;" cx="145.7" cy="1118.6" rx="11.8" ry="11.7"/>
				<path style="clip-path:url(#SVGID_00000039823558675755193520000008064739390203375279_);fill:#84F9E4;" d="M183.9,1155.2
					c-4.1,0-7.4-3.3-7.4-7.3c0-4,3.3-7.3,7.4-7.3c4.1,0,7.4,3.3,7.4,7.3C191.3,1151.9,188,1155.2,183.9,1155.2z"/>
				<path style="clip-path:url(#SVGID_00000039823558675755193520000008064739390203375279_);fill:#84F9E4;" d="M139.1,1206.5
					c-7.7,0-14-6.2-14-13.9s6.3-13.9,14-13.9c7.7,0,14,6.2,14,13.9S146.8,1206.5,139.1,1206.5z"/>
			</g>
			<path class="st131" d="M1143.2,1193.2c-0.2-1.4-1.2-2.4-1.3-3.8c-0.2-1.7,0.8-3.9,1.6-5.3c0.9-1.6,2.7-3,3.2-4.8
				c0.1-0.2,0-0.6,0.1-0.6c-0.2-0.2-0.5-0.4-0.7-0.6c-0.6-0.5-1.2-0.9-1.7-1.5c-1-1.3-0.8-2.8,0.3-3.9c0.1-0.1,0.5-0.5,0.7-0.6
				c-0.2-0.9-0.2-1.9-0.3-2.8c-0.3-2.8-1.2-5.7-1.5-8.6H143.4v29.3c0,7.5,6.1,13.5,13.6,13.5h985.8
				C1143.1,1200.1,1143.7,1196.6,1143.2,1193.2z"/>
			<ellipse class="st132" cx="793.3" cy="1087" rx="301.7" ry="15.5"/>
		</g>
		<path class="st124" d="M1160.7,1204.3h62.4c-1.9-5.4-5.5-5-9.7-6.6c-4.8-1.9-3.9-7.3-7.6-9.9c-3.8-2.6-8.3-1.8-12.4-2.6
			c-5.5-1.1-3.5-5.8-7.6-7.8c-1.1-0.5-2.9,0.2-4.2,0c-0.9-0.2-3.1-1.8-3.5-1.8c-1.4,0.1-1.6,2.3-2.8,2.2c-1.6-0.1-2.7-2.4-4.4-2.2
			c-4,0.5-1.9,6.4-4.6,8.7c-2.8,2.5-4.9-0.8-7,1.7c-0.8,0.9-0.8,7.7-0.9,9.4C1158.3,1199.3,1155.9,1204.3,1160.7,1204.3z"/>
		<path class="st122" d="M1204.4,1194.8c1.1-2.5-3-3.6-4.7-3.7c-2.7-0.2-3.2-1.9-5.5-2.7c-1-0.3-1.5-0.2-2.4-0.7
			c-1.1-0.6-1.8-1.6-2.8-2.4c-1.2-0.9-2.2-1.7-3.3-2.6c-1-0.9-2.2-1.8-3.7-1.1c-1.1,0.5-1,2.1-2.7,2c-1.5-0.2-2.5-2.4-4.4-1.6
			c-1.8,0.7-1.5,3.3-2.8,4.7c-1.6,1.7-3.3,0.7-5.3,1.3c-1.6,0.5-2.4,2-3.8,2.7c2.4,4.2,12.4-2.7,16.2-1.1c2,0.8,2.3,3.3,3.9,4.2
			c1.8,0.9,5.1-0.3,7-0.1c2.3,0.2,3.6,2.1,5.7,2.6c1.6,0.4,2.2-0.5,3.9,0c3.3,1.1,6.4,2.7,10,2.4c0.3-1.7-1.7-2.2-2.8-2.8
			C1205.6,1195.1,1204.5,1194.7,1204.4,1194.8z"/>
		<path class="st124" d="M1162.4,1154.6c2.5,0,6.1,1.5,6.2,4.5c0.1,3.4-3.4,3.4-4.8,5.6c-2,3.1,1.1,5.9-0.1,9.2
			c-4,11.1-14.4-14.1-5-12.5C1159.1,1158.6,1156.9,1153.8,1162.4,1154.6z"/>
		<path class="st126" d="M1183.7,1183.9c2.2-1,3.2,2.1,4.3,3.3c1.1,1.2,2.9,1.3,4.3,2.1c1.3,0.8,2,1.7,3.4,2.2
			c1.5,0.6,3.1,0.7,4.3,1.9c-1.8,2.3-6.8-1.7-9-1.8c-2.1-0.1-2.8,0.2-4.5-1.4c-1.1-1-1.8-2-3.3-2.4c-1-0.3-7.2-1-5.4-3
			C1179,1183.3,1182.5,1185.6,1183.7,1183.9z"/>
		<path class="st125" d="M1158.5,1195.3c0.1-1.6,0.1-8.5,0.9-9.4c0.5-0.6,0.9-0.8,1.4-0.9c0.9,1.8-0.2,3.5-0.1,6.1
			c0.1,1.6,0.8,2.1,2.1,3.1c0.6,0.4,1.1,0.6,1.6,1.1c0.7,0.8,0.7,2.2,1.6,2.9c1.3,1.1,5.2,1.1,6.9,1.3c2.1,0.2,4.3-0.6,6.2,0.8
			c1.1,0.8,1,1.5,2.3,1.7c1,0.1,2.5-0.6,3.5-0.7c1.1-0.2,2.8-0.5,3.9,0c0.6,0.3,1.2,1.5,1.7,1.7c0.6,0.2,1-0.4,1.5-0.4
			c2.4-0.3,4.7-1.1,7.3-0.7c3.2,0.6,5.2,1.7,8.3,0.4c2.1-0.9,3.9-0.7,6-1.1c1.6-0.3,2.4-0.8,4.1-0.3c0.2-0.5,0.4-1.1,0.5-1.7
			c2.1,0.8,3.9,1.9,5,5.1h-62.4C1155.9,1204.3,1158.3,1199.3,1158.5,1195.3z"/>
		<path class="st107" d="M1015.8,496C1015.8,496,1015.8,496,1015.8,496c0.4,0.1,0.9,0.1,1.3,0C1016.6,496,1016.2,496,1015.8,496z"/>
		<path class="st107" d="M958.7,510.7c-60.7,10.9-114.7,56.4-128.4,117.9c-3.8,16.9-3.8,34.4-1.4,51.5
			C856.6,873,1102,840.4,1241.4,877.5c37.9,10.1,76.9,27.6,96.3,61.5c12.4,21.7,15.2,47.9,11.6,72.7c-1.3,8.9-3.4,17.8-7.3,25.9
			c-10.5,22-32.8,36-55.3,45.5c-22.5,9.5-46.5,15.8-67.5,28.3c-21,12.4-37.7,29.7-38.7,54c15.8-33.7,60.5-38.8,97.5-43.9
			c69.5-9.5,144.6-43.7,165.7-110.3c18.2-57.4-11.7-121.7-58.8-159.3c-47.1-37.6-108.1-53.1-167.9-61.8
			c-59.8-8.7-120.7-11.7-178.7-28.6c-36.7-10.7-73.7-28.6-93.8-61c-20.2-32.3-16-81.6,16.8-101.1c36.2-21.5,86.8,1.1,123.2-20.1
			c18.3-10.6,29.7-32,28.3-53c-1.7-24.9-23.9-50.6-15.8-75.8c6.3-19.9,29.5-26.3,48.3-26.3c30.2,0.1,53.4-13.3,58-45.1
			c3.5-24.5-7.8-33.3-20-52c-10.9-16.7,3.5-41.2,7.5-59.2c7-31.3,6.1-56.6-6.3-86.3c-13.1-31.4-30.7-51.5-59.7-69.4
			c-47.5-29.2-111.4-40.3-165.6-24.9c-19.9,5.7-39.5,14.1-57,24.9c-29,17.9-46.6,38-59.7,69.4c-12.4,29.7-13.3,55.1-6.3,86.3
			c4,18,18.4,42.5,7.5,59.2c-12.2,18.7-23.6,27.5-20,52c4.6,31.8,27.8,45.2,58,45.1c22-0.1,46.3,7.1,56.2,26.5
			c8.6,16.8,18,26.4,26.3,32.1C975.7,490.6,972.4,508.3,958.7,510.7z M953.2,316.5c-17.5,7.7-40,14.3-57.3,2.6
			c-15.7-10.6-18.6-34.3-18.5-52c0-1.1,0-2.2,0.1-3.4c1.8-31,29.3-54.4,60.4-52.6c25.5,1.5,52.6,7.7,63.6,32.5
			C1016.5,277.8,980.1,304.7,953.2,316.5z M1023,328.4c10.9,11.6,15.2,32.4,16.3,47.8c0.5,6.9,1.3,16.8-5.7,21
			c-9.5,5.7-11.6-4.8-19-7.8c-10-4-18.3,9.9-27.4,0.9c-11-10.9-0.3-37.1,5.5-47.8c5.1-9.4,12.2-21.8,21.7-19.7
			C1017.1,323.4,1019.9,325.1,1023,328.4z M1076.8,316.5c-26.9-11.8-63.4-38.7-48.3-72.8c11-24.8,38.1-31,63.6-32.5
			c31.1-1.8,58.6,21.6,60.4,52.6c0.1,1.1,0.1,2.2,0.1,3.4c0.1,17.7-2.8,41.4-18.5,52C1116.8,330.8,1094.3,324.2,1076.8,316.5z
			 M1015.8,496c0.4,0.1,0.9,0.1,1.3,0C1016.6,496,1016.2,496,1015.8,496C1015.8,496,1015.8,496,1015.8,496z M969.6,456.3
			c0.3-4.4,0.5-8.8,0.5-13.2c-7.6-1.7-15.1-3.8-22.4-6.4c-5.7-2-3.2-11,2.5-9c6.5,2.3,13.1,4.1,19.7,5.7c-0.2-3.9-0.4-7.8-0.9-11.7
			c-0.3-2.5,4.1-3.1,4.5-0.6c0.7,4.4,1.1,8.9,1.5,13.4c11.4,2.4,23,3.7,34.7,4c-0.1-3.6-0.1-7.2-0.2-10.8c-0.1-3.7,5.4-3.6,5.7,0
			c0.3,3.6,0.7,7.3,1,10.9c11,0,22-0.9,32.9-2.7c0.1-3.3,0.3-6.5,0.5-9.8c0.2-2.5,3.6-2.5,3.9,0c0.3,2.9,0.6,5.9,0.7,8.9
			c5.9-1.1,11.8-2.5,17.6-4.1c4.5-1.2,6.2,5.4,1.9,6.8c-6.3,2.2-12.7,4-19.1,5.4c0.2,4,0.3,8.1,0.4,12.1c0.1,4-6.3,4-6.2,0
			c0-3.6,0-7.2,0.1-10.9c-10.5,2-21.3,3.2-32,3.4c0.2,2.7,0.4,5.3,0.6,8c0.2,3.2,1.1,6.9-0.2,9.9c-1.1,2.5-4.8,2.1-6,0
			c-1.5-2.7-1-6.6-1.1-9.6c-0.1-2.8-0.2-5.5-0.3-8.3c-11.5-0.2-23-1.4-34.4-3.6c0.1,4,0.2,8.1,0,12.1
			C975.4,460.2,969.3,460.1,969.6,456.3z"/>
		<path class="st107" d="M845.1,533.6c-29.5,32.8-46.7,76.3-47.6,120.4c-0.9,44,14.5,88.2,42.6,122.2c47.2,57,125.8,86.9,199.3,96.3
			c34.3,4.4,50.8,6.5,110.2,8.6c-75.2,11.6-151.8,13.8-223.4-12c-71.6-25.8-134.8-83.6-150.6-157.8
			C761.4,644.8,790,574.1,845.1,533.6z"/>
		<path class="st107" d="M962.5,639.3c6.2,23.8,16.4,43.8,37.4,59.1c20.4,14.8,44.9,22.7,69.2,29.4c34.3,9.5,70.1,16.9,105.6,22.4
			c35.9,5.6,72.7,6.2,108.2,14.5c20.9,4.9,41.7,10.5,61.6,18.7c18.7,7.7,36.6,17.8,51.8,31.2c23.2,20.4,39.7,48.4,46.2,78.5
			c-12.3-29.2-36.1-52.4-63.4-68.7c-27.2-16.3-57.8-26.1-88.5-34.2c-69.9-18.3-141.7-27.8-212.6-41.5c-30.4-5.8-61.7-12.9-86.2-31.8
			C969.4,699.6,952.7,667.7,962.5,639.3z"/>
		<path class="st107" d="M1138.6,466.1c9.1-13.3,26.2-18.1,41.6-22.8c18.8-5.7,37.9-13,52.2-26.5c14.3-13.5,23-34.5,17.1-53.2
			c-5.3-16.7-20.9-28.7-26-45.4c-6-20,4.3-40.8,14.3-59.1c-8.8,26.9-1.5,58.5,18.3,78.8c5.6,5.8,12.2,10.8,16.8,17.4
			c7,10,8.8,22.9,7.6,35.1c-2.8,29.6-23.4,56.8-51.2,67.8c20-2,38.8-14,49-31.3c-2.6,29.6-26.9,55.9-56.3,60.9
			c-7.4,1.3-15.1,1.3-22,4.3c-10.5,4.5-17.1,15.3-19.7,26.3c-2.6,11.1-1.6,22.6-0.7,33.9c-16.6-9.3-23.1-31.1-18.8-49.5
			c4.3-18.4,17.3-33.7,32-45.7c14.7-12,31.3-21.5,46.3-33.2c-21.4,25.4-65.3,24-84,51.5c-8.7,12.8-3.7,39.5-12.5,47.6
			C1129.5,512.1,1129.1,479.9,1138.6,466.1z"/>
		<path class="st107" d="M801.1,248.9c6.6,26,22.3,52,14.7,77.7c-4.4,14.9-16.1,26.6-21.6,41.1c-8,21.1-0.9,47,16.8,61
			c-18.4-3.1-32.4-19.9-36.2-38.1c-3.8-18.2,1-37.2,9.1-53.9c4.3-9,9.6-17.6,12.6-27.1c3-9.5,3.3-20.4-1.9-28.9
			c0.5,14.4-8.4,27.2-14.7,40.3c-12.6,26.1-15,56.9-6.7,84.6c-17.8-23.8-17.3-57.5-6.3-85.1c7.1-17.8,18.2-34.8,18.7-54
			c0.6-19.7-10.2-38-13.6-57.4c-3-17.5,0.2-36,8.9-51.4c-3.5,35.6,0.9,71.9,12.6,105.7c-8.4-32.5-14.9-69.8,4.4-97.3
			c6.7-9.5,16.5-18.2,27.1-23.1c-6.4,16.7-18.7,30-23.5,48.2C796.6,210.1,796.3,230,801.1,248.9z"/>
		<path class="st107" d="M1265.6,1055.1c10.7-6.4,21.9-12.8,29.7-22.5c20.7-25.7,8.5-67.1-18.3-86.3c-26.9-19.2-62.9-20.4-95.4-14.5
			c-32.5,5.9-63.6,18.2-96.2,23.5c-72.6,11.9-150.2-13.2-202-65.2c9.7,30.3,36.7,52.7,66.6,63.9c29.9,11.2,62.5,12.5,94.3,11.7
			c32.1-0.8,64.2-3.5,96-8.2c19.1-2.8,38.5-6.4,57.6-3.4c19.1,2.9,38.2,13.8,45.1,31.8c7.3,19-1,41.1-15.2,55.7
			c-14.1,14.7-33.2,23.4-51.8,31.9c26,0.1,51.7-12.8,67.1-33.6c15.4-20.8,20.1-49.1,12.3-73.8c20,8.4,25.9,35.7,17.8,55.7
			c-8.1,20-26,34.3-43.3,47.2c-12.8,9.5-30.1,19.5-35.2,35C1218.6,1088.2,1240.9,1069.9,1265.6,1055.1z"/>
		<path class="st107" d="M1331.4,1140c45.5-5.7,94.2-15.4,125.4-48.9c40.6-43.6,37.5-111.5,24.5-169.6
			c30.6,46.7,34.9,109.3,11.1,159.8c15.5-10.7,26-28.4,28-47.1c10.8,39.1-5.8,82.8-36.3,109.6c-30.6,26.8-73.1,37.8-113.7,35.3
			c41.2-1.8,80.4-27.6,98.1-64.7c-35.6,30.2-82.2,47.1-128.9,46.7c-23.6-0.2-47.1-4.5-70.6-3.9c-18,0.5-34.3,6.4-50.8,10.9
			C1242.9,1144.3,1298.3,1144.1,1331.4,1140z"/>
		<path class="st107" d="M1419,810.4c-1-14.1-31.2-33.9-37.3-37c-16.2-8.2-52-18-65-9.9C1343.7,770.2,1374.6,771.1,1419,810.4z"/>
	</g>
</g>
</svg>
